# xmcd
#
# Track frame offsets: 
#        182
#        18034
#        41705
#        58931
#        81081
#        111800
#        129295
#        158178
#        176178
#        201479
#        225789
#
# Disc length: 3466 seconds
#
# Revision: 0
# Processed by: cddbd v1.5.2PL0 Copyright (c) Steve Scherf et al.
# Submitted via: ExactAudioCopy v1.0b2
#
DISCID=890d880b
DTITLE=KONG - Merchants Of Air
DYEAR=2012
DGENRE=Post Rock
TTITLE0=El Pilar
TTITLE1=Astral Calls
TTITLE2=Steamtrucking
TTITLE3=The Gates Of Exception
TTITLE4=Same Meaning Different Worlds
TTITLE5=Wahnsinn, Baby
TTITLE6=Stug
TTITLE7=Vapour Lock
TTITLE8=No Strings Attached
TTITLE9=Blue Couch
TTITLE10=Back Into The Trees
EXTD=
EXTT0=
EXTT1=
EXTT2=
EXTT3=
EXTT4=
EXTT5=
EXTT6=
EXTT7=
EXTT8=
EXTT9=
EXTT10=
PLAYORDER=
